<?xml version="1.0" standalone="no"?>
<svg viewBox="0 0 200 200" xmlns="http://www.w3.org/2000/svg">
  <path fill="#51C4D3" d="M41,-68.9C51.7,-64.8,58,-51,64,-37.9C69.9,-24.7,75.6,-12.4,76.7,0.6C77.7,13.6,74.2,27.2,67.3,38.8C60.5,50.4,50.4,60,38.6,61.8C26.8,63.6,13.4,57.5,2.1,53.9C-9.3,50.3,-18.5,49.2,-30.9,47.8C-43.4,46.4,-58.9,44.7,-67.3,36.7C-75.8,28.7,-77,14.3,-73.7,1.9C-70.4,-10.5,-62.5,-21,-54.7,-30.2C-47,-39.4,-39.4,-47.2,-30.3,-52.2C-21.2,-57.3,-10.6,-59.5,2.3,-63.5C15.1,-67.4,30.3,-73.1,41,-68.9Z" transform="translate(100 100)" />
</svg>
